<svg width="64" height="64" viewBox="0 0 64 64" fill="none" xmlns="http://www.w3.org/2000/svg">
  <!-- Gradient background circle -->
  <defs>
    <linearGradient id="glowGradient" x1="0%" y1="0%" x2="100%" y2="100%">
      <stop offset="0%" style="stop-color:#FF6B9D;stop-opacity:1" />
      <stop offset="50%" style="stop-color:#C084FC;stop-opacity:1" />
      <stop offset="100%" style="stop-color:#60A5FA;stop-opacity:1" />
    </linearGradient>
  </defs>
  
  <!-- Background circle -->
  <circle cx="32" cy="32" r="30" fill="url(#glowGradient)"/>
  
  <!-- Sparkle/Star shape for "Glow" -->
  <path d="M32 12 L35 25 L48 28 L35 31 L32 44 L29 31 L16 28 L29 25 Z" fill="white" opacity="0.95"/>
  
  <!-- Small sparkles -->
  <circle cx="22" cy="18" r="3" fill="white" opacity="0.8"/>
  <circle cx="42" cy="18" r="2" fill="white" opacity="0.7"/>
  <circle cx="20" cy="38" r="2" fill="white" opacity="0.7"/>
  <circle cx="44" cy="40" r="3" fill="white" opacity="0.8"/>
  
  <!-- Letter G subtle outline at bottom -->
  <path d="M26 48 Q26 52 30 52 L34 52 Q38 52 38 48 L38 44 L32 44 L32 47 L35 47 L35 48 Q35 49 34 49 L30 49 Q29 49 29 48 L29 50 Q29 51 30 51" 
        stroke="white" stroke-width="1.5" fill="none" opacity="0.6"/>
</svg>
