<svg width="180" height="180" viewBox="0 0 180 180" fill="none" xmlns="http://www.w3.org/2000/svg">
  <!-- Gradient background circle -->
  <defs>
    <linearGradient id="glowGradient" x1="0%" y1="0%" x2="100%" y2="100%">
      <stop offset="0%" style="stop-color:#FF6B9D;stop-opacity:1" />
      <stop offset="50%" style="stop-color:#C084FC;stop-opacity:1" />
      <stop offset="100%" style="stop-color:#60A5FA;stop-opacity:1" />
    </linearGradient>
  </defs>
  
  <!-- Background circle -->
  <circle cx="90" cy="90" r="85" fill="url(#glowGradient)"/>
  
  <!-- Sparkle/Star shape for "Glow" -->
  <path d="M90 30 L100 75 L145 85 L100 95 L90 140 L80 95 L35 85 L80 75 Z" fill="white" opacity="0.95"/>
  
  <!-- Small sparkles -->
  <circle cx="55" cy="45" r="8" fill="white" opacity="0.8"/>
  <circle cx="125" cy="45" r="6" fill="white" opacity="0.7"/>
  <circle cx="50" cy="115" r="6" fill="white" opacity="0.7"/>
  <circle cx="130" cy="120" r="8" fill="white" opacity="0.8"/>
  
  <!-- Letter G -->
  <path d="M65 145 Q65 155 75 155 L85 155 Q95 155 95 145 L95 135 L80 135 L80 142 L87 142 L87 145 Q87 148 85 148 L75 148 Q72 148 72 145 L72 150 Q72 152 75 152" 
        stroke="white" stroke-width="3" fill="none" opacity="0.7"/>
</svg>
