<svg width="32" height="32" viewBox="0 0 32 32" fill="none" xmlns="http://www.w3.org/2000/svg">
  <!-- Gradient background circle -->
  <defs>
    <linearGradient id="glowGradient" x1="0%" y1="0%" x2="100%" y2="100%">
      <stop offset="0%" style="stop-color:#FF6B9D;stop-opacity:1" />
      <stop offset="50%" style="stop-color:#C084FC;stop-opacity:1" />
      <stop offset="100%" style="stop-color:#60A5FA;stop-opacity:1" />
    </linearGradient>
  </defs>
  
  <!-- Background circle -->
  <circle cx="16" cy="16" r="15" fill="url(#glowGradient)"/>
  
  <!-- Sparkle/Star shape for "Glow" -->
  <path d="M16 6 L17.5 12.5 L24 14 L17.5 15.5 L16 22 L14.5 15.5 L8 14 L14.5 12.5 Z" fill="white" opacity="0.95"/>
  
  <!-- Small sparkles -->
  <circle cx="11" cy="9" r="1.5" fill="white" opacity="0.8"/>
  <circle cx="21" cy="9" r="1" fill="white" opacity="0.7"/>
  <circle cx="10" cy="19" r="1" fill="white" opacity="0.7"/>
  <circle cx="22" cy="20" r="1.5" fill="white" opacity="0.8"/>
  
  <!-- Letter G subtle outline at bottom -->
  <path d="M13 24 Q13 26 15 26 L17 26 Q19 26 19 24 L19 22 L16 22 L16 23.5 L17.5 23.5 L17.5 24 Q17.5 24.5 17 24.5 L15 24.5 Q14.5 24.5 14.5 24 L14.5 25 Q14.5 25.5 15 25.5" 
        stroke="white" stroke-width="0.8" fill="none" opacity="0.6"/>
</svg>
